<svg width="40" height="40" viewBox="0 0 40 40" fill="none" xmlns="http://www.w3.org/2000/svg">
<g clip-path="url(#clip0_1101_290)">
<path d="M19.9567 11.7397C20.2214 11.648 20.5105 11.7246 20.7531 11.8442C20.9226 11.9533 21.0921 12.0636 21.2819 12.135C21.2964 12.1623 21.3266 12.2163 21.3411 12.243C21.3336 12.261 21.3191 12.2981 21.3115 12.3161C21.4468 12.6238 21.5332 12.9883 21.4021 13.3115C21.3127 13.4206 21.1571 13.4375 21.0312 13.4798C21.0306 13.6359 21.0555 13.7904 21.0689 13.9454C21.3382 13.9889 21.5662 13.8014 21.8326 13.82C21.8686 13.6708 21.8971 13.5192 21.9448 13.373C21.9999 13.4699 22.0022 13.5814 22.0028 13.6906C22.0725 13.7103 22.1433 13.7283 22.2146 13.7456C22.2153 13.7724 22.2158 13.8258 22.2158 13.8525C23.3836 13.8595 24.5509 13.8472 25.7188 13.8589C25.7159 13.8988 25.7102 13.979 25.7079 14.0191C25.7381 14.0191 25.7996 14.0197 25.8302 14.0197C25.8291 13.8073 25.8302 13.5942 25.8297 13.3818C25.8593 13.3806 25.9173 13.3789 25.9463 13.3783C25.947 13.5454 25.9475 13.7126 25.9493 13.8798C25.9748 13.9112 26.0258 13.9738 26.0515 14.0052C26.0707 13.9825 26.1089 13.9379 26.128 13.9152C26.2168 13.9983 26.1663 14.112 26.1624 14.2141C26.4892 14.2105 26.8193 14.2326 27.1451 14.2059C27.1694 14.1879 27.2182 14.1525 27.2426 14.1345C27.2873 14.1519 27.3326 14.1694 27.3772 14.1874C27.5241 14.1838 27.6715 14.1833 27.819 14.1827C27.8159 14.2588 27.8136 14.3347 27.8107 14.4108C27.6209 14.4079 27.4305 14.4039 27.2436 14.4363C27.1229 14.3325 26.9609 14.3654 26.8153 14.3615C26.5912 14.3719 26.3601 14.3325 26.1431 14.4038C26.0141 14.4398 25.8726 14.4311 25.7588 14.358C25.7314 14.4259 25.7734 14.5779 25.6589 14.5721C25.2085 14.5779 24.7586 14.5681 24.3088 14.575C24.2472 14.6075 24.1851 14.6383 24.1237 14.6684C24.0587 14.8623 23.8724 14.9917 23.7138 15.1101C23.6941 15.4079 23.8119 15.6859 23.8578 15.9749C23.769 16.0004 23.6796 16.0266 23.5919 16.0556C23.466 16.3528 23.5432 16.7585 23.2518 16.9658C23.0283 17.0958 22.8804 17.3785 22.579 17.3339C22.7323 17.4616 22.5372 17.4215 22.5576 17.3193C22.0125 17.2712 21.5534 16.9513 21.0797 16.7076C21.0577 16.8411 21.0229 16.9723 20.9869 17.1029C21.1668 17.1371 21.3154 17.2695 21.3473 17.4541C21.4048 17.8564 21.2899 18.2558 21.2916 18.6591C21.3044 18.896 21.2028 19.113 21.0763 19.3063C20.9654 19.4317 20.7907 19.3027 20.6577 19.2842C20.6275 19.3428 20.598 19.4015 20.5689 19.4607C20.6067 19.6185 20.6229 19.7828 20.6757 19.9372C20.9724 20.2651 21.2423 20.6204 21.4495 21.0122C21.6628 21.4559 21.8529 21.9104 22.019 22.3739C22.0352 22.4639 22.1199 22.4962 22.1943 22.5289C22.2042 22.6217 22.214 22.7145 22.2233 22.8086C22.2524 22.851 22.282 22.8933 22.3121 22.9362C22.3301 23.5086 22.2599 24.0785 22.171 24.6433C22.116 24.8982 22.265 25.1471 22.2046 25.4037C22.2116 25.5351 22.1212 25.6343 22.0787 25.7503C22.0706 26.0214 22.0572 26.2959 22.0869 26.5665C22.1077 26.765 22.2756 26.8927 22.3893 27.0407C22.5136 27.1726 22.6175 27.3495 22.8055 27.3965C22.9826 27.4493 23.1515 27.5259 23.3075 27.6264C23.3551 27.7442 23.3464 27.8691 23.3237 27.9915C22.9836 28.0541 22.6365 28.0229 22.2929 28.0281C22.0281 28.042 21.7919 27.8998 21.5347 27.8701C21.2857 27.8639 20.9821 27.9875 20.7907 27.7646C20.8718 27.4553 20.8783 27.1232 21.0268 26.8346C21.0744 26.5079 20.984 26.1764 21.003 25.8467C20.9747 25.8229 20.9177 25.7753 20.8892 25.7514C20.9097 25.5361 20.8034 25.3445 20.7679 25.1385C20.7448 24.8377 20.7174 24.5371 20.6826 24.2376C20.6553 24.0919 20.7308 23.9584 20.8335 23.8615C20.8428 23.6932 20.8655 23.5265 20.8817 23.3594C20.8567 23.2508 20.7702 23.1702 20.7145 23.0773C20.5282 23.1558 20.2769 23.1186 20.166 22.9362C19.9031 22.5451 19.6407 22.1538 19.3748 21.7649C19.2704 21.758 19.1601 21.7689 19.0626 21.7271C18.9501 21.6117 18.8913 21.4579 18.8195 21.3174C18.7167 21.4329 18.7242 21.6099 18.6024 21.715C18.3447 21.9623 18.2762 22.3257 18.1415 22.6426C18.0383 22.848 18.0963 23.0958 17.9813 23.2962C17.9198 23.4041 17.7654 23.4255 17.7247 23.5487C17.6713 23.6815 17.6087 23.8191 17.4839 23.8999C17.3486 23.9886 17.3127 24.1571 17.2524 24.2963C17.1972 24.4246 17.2791 24.5592 17.2599 24.691C17.174 25.1096 16.9076 25.4595 16.7956 25.8694C16.7445 26.054 16.6713 26.2618 16.4565 26.3012C16.2122 26.7377 16.0776 27.2718 16.2157 27.7632C16.3004 27.9176 16.2958 28.0912 16.2697 28.2612C15.8814 28.2915 15.4832 28.3437 15.1019 28.2352C15.0125 28.0581 15.0253 27.8497 15.0438 27.6583C15.1616 27.155 15.3178 26.6605 15.4135 26.152C15.2939 26.0458 15.3219 25.8833 15.3241 25.7411C15.3201 25.4758 15.5006 25.2634 15.626 25.0457C15.673 24.8222 15.651 24.5821 15.7664 24.377C15.9023 24.1205 16.0172 23.8431 16.2268 23.6358C16.2668 23.4529 16.4016 23.3148 16.456 23.1388C16.514 22.9832 16.4125 22.8254 16.4329 22.6664C16.4828 22.1839 16.5705 21.7063 16.6465 21.2274C16.5026 21.1072 16.549 20.9163 16.5031 20.7543C16.5258 20.6905 16.5542 20.6296 16.5885 20.5703C16.5525 20.5372 16.5171 20.5036 16.4811 20.4705C16.5159 20.3003 16.506 19.9956 16.7672 20.0509C16.7835 19.4873 16.5879 18.9416 16.6535 18.3774C16.6883 18.418 16.7225 18.4592 16.7574 18.5004L16.7388 18.3095C16.8479 18.2514 16.964 18.2067 17.0859 18.1841C16.8874 18.158 16.6941 18.1075 16.4995 18.0622C16.4525 17.9385 16.4788 17.8068 16.4961 17.6803C16.5715 17.2531 16.5994 16.82 16.615 16.387C16.835 16.3105 17.0777 16.3755 17.2924 16.2733C17.2258 15.7317 17.209 15.1664 17.4016 14.6468C17.5565 14.2045 17.8526 13.7779 18.3146 13.6224C18.5328 13.5702 18.8074 13.5115 18.9617 13.7234C19.0041 13.6845 19.0464 13.6444 19.0888 13.6055C18.7365 12.9058 19.1573 11.8837 19.9567 11.7397ZM22.7759 14.7743C22.683 14.8312 22.5919 14.8963 22.6895 14.9996C22.642 15.028 22.5942 15.0553 22.5461 15.0814C22.4706 15.1394 22.3011 15.1724 22.3208 15.2898C22.4056 15.4259 22.4787 15.569 22.5392 15.7175C22.7243 15.5655 22.8717 15.3611 22.9715 15.1447C22.9924 15.1232 23.0349 15.0803 23.0557 15.0593C23.0464 14.9601 23.0244 14.8631 22.9855 14.7714C22.9158 14.7726 22.8456 14.7737 22.7759 14.7743Z" fill="#19250A" fill-opacity="0.5"/>
<path d="M24.479 19.9707C24.7448 19.6353 25.1743 19.4495 25.6003 19.4564C26.8965 19.4576 28.1932 19.4559 29.4893 19.457C30.1215 19.4704 30.7379 19.9644 30.8111 20.6064C29.0169 20.6004 27.2232 20.6116 25.4297 20.6004C25.428 21.8009 25.4257 23.0018 25.4297 24.2028C26.8066 24.2005 28.1833 24.1982 29.5602 24.204C29.5549 23.7739 29.5618 23.3437 29.5561 22.9137C28.8753 22.9176 28.1944 22.9189 27.5135 22.9137C26.9674 22.8927 26.5611 22.4209 26.4381 21.9182C27.902 21.913 29.3653 21.9124 30.8291 21.9188C30.8228 22.6542 30.8327 23.3903 30.8238 24.1257C30.8064 24.7451 30.2736 25.2902 29.6629 25.3523C28.2507 25.3523 26.8379 25.3517 25.4257 25.3517C25.0037 25.3487 24.6305 25.0822 24.3925 24.7497C24.2299 24.5146 24.1933 24.2227 24.1702 23.9457C24.1678 22.959 24.1713 21.9716 24.1689 20.9849C24.1743 20.6272 24.2375 20.2494 24.479 19.9707ZM33.0423 19.497C33.1881 19.4575 33.3401 19.4547 33.4905 19.4564C34.6886 19.46 35.8872 19.4524 37.0852 19.4593C37.7644 19.4884 38.361 20.0747 38.3872 20.7561C38.3884 21.8572 38.3884 22.9589 38.3872 24.0607C38.375 24.7357 37.7771 25.3649 37.0917 25.3533C35.7741 25.3475 34.4565 25.3574 33.1388 25.3487C32.4817 25.2755 31.9773 24.6481 31.9727 23.9986C31.9634 22.9943 31.9738 21.989 31.9674 20.9849C31.9622 20.6888 32.0156 20.3847 32.1723 20.1293C32.3563 19.8082 32.686 19.5835 33.0423 19.497ZM33.249 20.5686C33.2513 21.8073 33.2438 23.0465 33.2525 24.2852C34.5393 24.2887 35.8269 24.2846 37.1137 24.2868C37.1176 23.0471 37.1143 21.8072 37.1153 20.5667C35.8268 20.5662 34.5376 20.564 33.249 20.5686ZM0.00204764 20.8635C0.0293867 20.1919 0.591783 19.5609 1.27613 19.5348C2.5548 19.5336 3.83411 19.5336 5.11289 19.5354C5.80362 19.5285 6.37896 20.1524 6.43109 20.8217C6.3388 20.8293 6.24651 20.835 6.15421 20.8362C4.6317 20.8345 3.10919 20.8368 1.58719 20.835C1.58655 21.9169 1.58087 22.9988 1.5901 24.0809C3.20612 24.0785 4.82151 24.0773 6.43747 24.0815C6.39162 24.775 5.80763 25.3905 5.10366 25.4177C3.94509 25.434 2.78651 25.4183 1.62788 25.4253C1.3394 25.4352 1.04221 25.3991 0.782228 25.2674C0.334122 25.0381 0.0171393 24.5708 0.00158328 24.0635C0.000306294 22.9966 -0.00143505 21.9303 0.00204764 20.8635ZM7.66164 20.3376C7.87466 19.8726 8.36224 19.5273 8.88122 19.5336C10.1582 19.5348 11.4358 19.5336 12.7134 19.5342C13.3803 19.5383 13.9677 20.1221 14.0148 20.7811C12.3302 20.8049 10.6446 20.7845 8.95964 20.7909C8.95203 21.1299 8.95557 21.4689 8.95499 21.8084C10.2076 21.8124 11.4608 21.8096 12.7134 21.8096C13.0848 21.8241 13.4749 21.9431 13.728 22.2304C14.0123 22.4847 14.1325 22.8718 14.1418 23.2445C14.1481 23.6166 14.1481 23.9904 14.0878 24.3589C13.9496 24.9557 13.3791 25.4003 12.7702 25.4194C11.5525 25.431 10.334 25.4206 9.1163 25.4252C8.82903 25.4311 8.53185 25.3898 8.27697 25.2499C7.87298 25.0392 7.58276 24.6153 7.54276 24.1604C9.25741 24.1686 10.9726 24.1656 12.6873 24.1616C12.6913 23.8004 12.689 23.4395 12.689 23.0785C11.4202 23.0698 10.1507 23.0773 8.88122 23.0749C8.15165 23.0807 7.50619 22.4103 7.52581 21.683C7.55135 21.2349 7.44809 20.7538 7.66164 20.3376ZM38.7836 19.6544C38.9449 19.6504 39.108 19.644 39.2688 19.6684C39.194 19.6875 39.1178 19.6974 39.0413 19.6985C39.0314 19.8733 39.0303 20.048 39.0326 20.2226C39.0158 20.2226 38.9827 20.2226 38.9664 20.2232C38.9676 20.0438 38.9693 19.8645 38.967 19.6857C38.9217 19.6893 38.8318 19.6974 38.7871 19.7008L38.7836 19.6544ZM39.3593 19.6479C39.3936 19.6497 39.4632 19.6532 39.4982 19.6549C39.5475 19.8122 39.6055 19.9666 39.6775 20.1158C39.7449 19.9654 39.789 19.8052 39.8633 19.659C39.8958 19.6544 39.9608 19.6445 39.9932 19.6399C39.9752 19.8535 40.0489 20.0897 39.9335 20.2841C39.9126 20.0949 39.9213 19.9045 39.9091 19.7147C39.8208 19.8918 39.7791 20.0908 39.6636 20.2545C39.5753 20.0863 39.5376 19.8946 39.432 19.7357C39.4251 19.9052 39.4285 20.0753 39.4262 20.2453L39.3641 20.2382C39.364 20.0416 39.3611 19.8448 39.3593 19.6479Z" fill="#19250A" fill-opacity="0.5"/>
</g>
<defs>
<clipPath id="clip0_1101_290">
<rect width="40" height="40" fill="white"/>
</clipPath>
</defs>
</svg>
