<svg width="62" height="48" viewBox="0 0 62 48" fill="none" xmlns="http://www.w3.org/2000/svg">
<path d="M60.9495 6.30508C59.3935 4.69432 57.8035 3.11783 56.2645 1.48993C55.8648 1.02658 55.371 0.655179 54.8165 0.400922C54.2619 0.146664 53.6597 0.0154843 53.0504 0.0162446C41.6567 0.0162446 30.2602 0.0162446 18.8608 0.0162446C18.355 -0.0448135 17.8435 0.0673193 17.4086 0.334613C16.9737 0.601906 16.6406 1.00883 16.463 1.48993C13.7761 8.00153 11.0694 14.5103 8.34286 21.0162L1.58316 37.2952C1.50664 37.4751 1.43861 37.6379 1.36209 37.8007C1.36209 37.8778 1.29406 37.9463 1.26856 38.0149L0.214214 40.4653C0.042572 40.8662 -0.0276621 41.3038 0.00981196 41.7388C0.047286 42.1738 0.191296 42.5927 0.42893 42.9578C0.666565 43.3229 0.990398 43.6229 1.3714 43.8309C1.75241 44.0389 2.17867 44.1484 2.61199 44.1495H25.0423C26.2412 44.1495 28.2393 44.2609 29.5318 45.5032L30.7307 46.677L30.9687 46.9084L31.1133 47.0455C31.1314 47.0724 31.1545 47.0957 31.1813 47.114C31.5122 47.4452 31.9146 47.6948 32.3571 47.8435C32.7996 47.9921 33.2702 48.0357 33.7321 47.9708H35.4327C36.6996 47.9708 37.4223 47.9708 38.6722 47.9708C43.1617 47.8252 46.3927 46.0088 48.0253 42.316C49.9469 38.032 51.69 33.6195 53.5011 29.2585C53.6795 28.7363 53.6936 28.1713 53.5415 27.6407C53.3893 27.1101 53.0782 26.6398 52.6508 26.294C52.1066 25.7199 51.5454 25.1545 50.9927 24.5804C50.4401 24.0064 50.4061 23.5009 51.1543 23.3381C52.6935 23.0806 54.1454 22.4426 55.3799 21.4811C56.6145 20.5197 57.5932 19.2649 58.2286 17.8289C59.4785 15.0443 60.6179 12.1827 61.7913 9.34668C62.2504 8.41278 61.9443 7.32466 60.9495 6.30508ZM51.9706 8.53274C51.4065 10.2389 50.6565 11.8768 49.7343 13.4164C49.1081 14.2619 48.2847 14.9387 47.3371 15.3871C46.3894 15.8354 45.3466 16.0414 44.3011 15.9868C42.3794 15.9868 40.4493 15.9868 38.5192 15.9868C38.3423 15.9928 38.1664 15.9573 38.0056 15.8829C37.8447 15.8086 37.7032 15.6974 37.5924 15.5584C37.466 15.4361 37.3802 15.2775 37.3467 15.1042C37.3132 14.9309 37.3337 14.7514 37.4053 14.5902C37.9722 13.2536 38.539 11.9199 39.1059 10.589C39.122 10.5363 39.1419 10.4847 39.1654 10.4348C39.2229 10.3535 39.2538 10.2562 39.2538 10.1564C39.2538 10.0565 39.2229 9.95918 39.1654 9.87789C39.093 9.78795 38.9981 9.71912 38.8905 9.67846C38.7829 9.6378 38.6664 9.62678 38.5532 9.64656H36.8526C36.1214 9.64656 35.3902 9.64656 34.6504 9.64656C34.0489 9.5827 33.4433 9.72008 32.9269 10.0375C32.4106 10.3549 32.0123 10.8348 31.7935 11.403C31.1303 13.008 30.4642 14.6045 29.7953 16.1924C27.5563 21.5616 25.3172 26.928 23.0782 32.2915C22.8401 32.8656 22.9081 33.1483 23.4693 33.6881C24.0305 34.2279 24.4301 34.6563 24.8892 35.1532C25.022 35.3158 25.1898 35.4458 25.3799 35.5334C25.5699 35.6209 25.7772 35.6638 25.9861 35.6587C26.6578 35.6587 27.3295 35.6587 28.0098 35.6587C28.1879 35.6892 28.371 35.6551 28.5266 35.5626C28.6822 35.4701 28.8003 35.3251 28.86 35.1532C30.297 31.6832 31.751 28.2303 33.1794 24.7689C33.2961 24.4622 33.5105 24.2032 33.7891 24.0326C34.0676 23.862 34.3945 23.7895 34.7184 23.8264C37.7879 23.8264 40.8489 23.8264 43.9184 23.8264C44.2043 23.811 44.4859 23.9007 44.7111 24.0788C44.9363 24.2568 45.0897 24.5112 45.1428 24.7946C45.1497 24.9809 45.1118 25.1661 45.0323 25.3344C42.9633 30.2467 40.9 35.1732 38.8423 40.114C38.4086 41.1679 37.992 42.2217 37.5244 43.267C37.2353 43.9781 36.6146 43.9781 35.9343 43.267C34.5484 41.8105 33.1454 40.3711 31.768 38.9059C31.5285 38.6238 31.2312 38.3973 30.8965 38.242C30.5619 38.0867 30.1978 38.0063 29.8294 38.0063H16.7351C16.3436 38.0139 15.9554 37.9341 15.5982 37.7727C15.2409 37.6112 14.9236 37.3721 14.6689 37.0724C13.7251 36.0614 12.7473 35.0761 11.778 34.0822C11.4534 33.8352 11.2185 33.4875 11.1094 33.0927C11.0003 32.6979 11.0231 32.2779 11.1743 31.8974C14.0085 25.0431 16.8626 18.1888 19.7366 11.3344C20.1105 10.3283 20.7414 9.43956 21.5656 8.75803C22.3897 8.07649 23.3779 7.62638 24.4301 7.45318C25.0698 7.33769 25.7189 7.28319 26.3687 7.29039C30.314 7.29039 34.2593 7.29039 38.2131 7.29039H50.6952C50.856 7.26911 51.0189 7.26911 51.1798 7.29039C51.6985 7.44461 52.1661 8.08721 51.9706 8.53274Z" fill="#84D023"/>
</svg>
