<svg width="40" height="40" viewBox="0 0 40 40" fill="none" xmlns="http://www.w3.org/2000/svg">
<path fill-rule="evenodd" clip-rule="evenodd" d="M35 16.9169V29.9444C35 33.6568 32.0152 36.6663 28.3333 36.6663H11.6667C7.98477 36.6663 5 33.6568 5 29.9444V16.9169C5 14.8986 5.89941 12.9872 7.44977 11.7105L15.7831 4.84859C18.2372 2.82782 21.7628 2.82781 24.2169 4.84858L32.5502 11.7105C34.1006 12.9872 35 14.8986 35 16.9169ZM13.8214 25.5155C13.1859 25.2459 12.4521 25.5425 12.1825 26.1781C11.9129 26.8136 12.2095 27.5474 12.8451 27.817C15.56 28.9688 17.7957 29.5886 20.0705 29.5829C22.3464 29.5772 24.5375 28.9457 27.1616 27.8141C27.7955 27.5407 28.0878 26.8052 27.8144 26.1713C27.541 25.5374 26.8055 25.2451 26.1716 25.5184C23.6896 26.5887 21.8569 27.0784 20.0642 27.0829C18.2703 27.0874 16.3923 26.6062 13.8214 25.5155Z" fill="#84D023"/>
</svg>
