<svg width="230" height="32" viewBox="0 0 230 32" fill="none" xmlns="http://www.w3.org/2000/svg">
<g clip-path="url(#clip0_225_665)">
<path d="M40.9421 4.19137C39.8972 3.11786 38.8294 2.06718 37.7958 0.982241C37.5274 0.673434 37.1958 0.425912 36.8234 0.256458C36.451 0.0870044 36.0465 -0.000422458 35.6373 8.42446e-05C27.9857 8.42446e-05 20.3321 8.42446e-05 12.6766 8.42446e-05C12.3369 -0.0406088 11.9934 0.0341238 11.7014 0.212265C11.4093 0.390407 11.1856 0.661605 11.0663 0.982241C9.26189 5.322 7.44414 9.65984 5.61307 13.9958L1.07346 24.8452C1.02207 24.9651 0.976383 25.0736 0.924991 25.1821C0.924991 25.2335 0.879309 25.2792 0.862178 25.3248L0.154114 26.958C0.038844 27.2252 -0.00832312 27.5168 0.0168433 27.8067C0.0420098 28.0966 0.138723 28.3758 0.298311 28.6191C0.457899 28.8625 0.675376 29.0624 0.931247 29.201C1.18712 29.3396 1.47339 29.4126 1.76439 29.4133H16.8279C17.6331 29.4133 18.975 29.4876 19.8429 30.3156L20.6481 31.0979L20.8079 31.252L20.905 31.3434C20.9172 31.3614 20.9327 31.3769 20.9507 31.3891C21.1729 31.6098 21.4432 31.7762 21.7403 31.8752C22.0375 31.9743 22.3535 32.0033 22.6638 31.9601H23.8058C24.6566 31.9601 25.142 31.9601 25.9814 31.9601C28.9964 31.863 31.1663 30.6525 32.2626 28.1914C33.5531 25.3363 34.7237 22.3955 35.94 19.489C36.0598 19.141 36.0693 18.7644 35.9671 18.4108C35.8649 18.0572 35.656 17.7437 35.369 17.5133C35.0035 17.1307 34.6266 16.7538 34.2555 16.3712C33.8843 15.9887 33.8615 15.6518 34.364 15.5433C35.3977 15.3717 36.3727 14.9464 37.2018 14.3057C38.0309 13.6649 38.6882 12.8286 39.1149 11.8716C39.9543 10.0158 40.7194 8.10857 41.5074 6.21849C41.8158 5.59608 41.6102 4.87089 40.9421 4.19137ZM34.9121 5.67603C34.5333 6.81312 34.0296 7.90471 33.4104 8.93084C32.9898 9.4943 32.4369 9.9454 31.8004 10.2442C31.164 10.543 30.4637 10.6803 29.7615 10.6439C28.471 10.6439 27.1748 10.6439 25.8786 10.6439C25.7598 10.6479 25.6417 10.6242 25.5337 10.5747C25.4256 10.5251 25.3306 10.4511 25.2562 10.3584C25.1713 10.2769 25.1137 10.1712 25.0912 10.0557C25.0687 9.94016 25.0825 9.82053 25.1306 9.71313C25.5112 8.82234 25.8919 7.93346 26.2726 7.04648C26.2834 7.0113 26.2968 6.97694 26.3126 6.94368C26.3512 6.8895 26.3719 6.82464 26.3719 6.75811C26.3719 6.69158 26.3512 6.6267 26.3126 6.57252C26.2639 6.51258 26.2002 6.46671 26.1279 6.43961C26.0557 6.41251 25.9775 6.40517 25.9014 6.41835H24.7594C24.2683 6.41835 23.7772 6.41835 23.2805 6.41835C22.8765 6.37579 22.4698 6.46735 22.123 6.67891C21.7763 6.89047 21.5088 7.21026 21.3618 7.58894C20.9164 8.65865 20.4691 9.72265 20.0199 10.7809C18.5162 14.3593 17.0125 17.9358 15.5089 21.5104C15.349 21.893 15.3947 22.0814 15.7715 22.4412C16.1484 22.8009 16.4168 23.0864 16.7251 23.4176C16.8143 23.526 16.927 23.6126 17.0546 23.671C17.1822 23.7294 17.3215 23.7579 17.4618 23.7545C17.9129 23.7545 18.364 23.7545 18.8208 23.7545C18.9404 23.7748 19.0634 23.7521 19.1679 23.6905C19.2724 23.6288 19.3517 23.5322 19.3918 23.4176C20.3568 21.105 21.3333 18.8038 22.2926 16.4969C22.3709 16.2924 22.5149 16.1198 22.702 16.0061C22.8891 15.8925 23.1086 15.8441 23.3261 15.8687C25.3875 15.8687 27.4432 15.8687 29.5046 15.8687C29.6965 15.8585 29.8857 15.9182 30.0369 16.0369C30.1881 16.1556 30.2912 16.3251 30.3269 16.514C30.3315 16.6381 30.306 16.7616 30.2526 16.8737C28.8631 20.1476 27.4775 23.431 26.0956 26.7238C25.8044 27.4262 25.5246 28.1286 25.2105 28.8252C25.0164 29.2991 24.5995 29.2991 24.1427 28.8252C23.2119 27.8545 22.2697 26.8952 21.3447 25.9187C21.1839 25.7307 20.9842 25.5797 20.7594 25.4762C20.5347 25.3727 20.2902 25.3191 20.0428 25.3191H11.249C10.9862 25.3242 10.7254 25.271 10.4855 25.1634C10.2456 25.0558 10.0325 24.8964 9.86147 24.6967C9.22763 24.0229 8.57096 23.3662 7.91999 22.7039C7.70203 22.5392 7.54425 22.3075 7.47099 22.0444C7.39772 21.7812 7.41304 21.5013 7.51457 21.2478C9.41797 16.6796 11.3347 12.1114 13.2647 7.54326C13.5158 6.87273 13.9396 6.28039 14.493 5.82618C15.0465 5.37196 15.7101 5.07197 16.4168 4.95654C16.8464 4.87957 17.2823 4.84325 17.7187 4.84804C20.3682 4.84804 23.0178 4.84804 25.673 4.84804H34.0556C34.1636 4.83387 34.2731 4.83387 34.3811 4.84804C34.7294 4.95083 35.0435 5.3791 34.9121 5.67603Z" fill="#97F123"/>
<path d="M63.212 16.8562L63.4004 16.8048C63.8476 16.7181 64.2675 16.5256 64.6251 16.2435C64.9827 15.9614 65.2676 15.5978 65.4561 15.1831C65.8353 14.4564 66.0882 13.6705 66.2041 12.8591C66.2605 12.6454 66.2723 12.4224 66.2388 12.204C66.2053 11.9856 66.1272 11.7764 66.0094 11.5894C65.8915 11.4025 65.7365 11.2418 65.5538 11.1174C65.3712 10.993 65.1649 10.9075 64.9479 10.8662C64.2681 10.7072 63.5731 10.6229 62.8751 10.615C59.0606 10.615 55.2348 10.615 51.4147 10.615C51.3708 10.6076 51.3259 10.6091 51.2825 10.6192C51.2392 10.6293 51.1983 10.6479 51.1622 10.6739C51.1261 10.6999 51.0955 10.7328 51.0722 10.7707C51.0489 10.8087 51.0333 10.8508 51.0264 10.8948C49.8843 14.1724 48.7537 17.4463 47.6345 20.7163C47.3433 21.5614 47.0635 22.4008 46.7323 23.2459V23.3716H58.6381C59.2091 23.3716 59.7801 23.3715 60.3511 23.3087C60.9526 23.2839 61.5414 23.1285 62.0768 22.8534C62.6122 22.5783 63.0814 22.1901 63.4518 21.7156C64.1641 20.8394 64.603 19.773 64.7137 18.6492C64.7697 18.3203 64.7052 17.9823 64.5321 17.697C64.3591 17.4118 64.0891 17.1984 63.7716 17.096C63.5888 17.0275 63.4004 16.9818 63.2005 16.9247L63.212 16.8562ZM59.369 20.4422C59.1251 20.4773 58.8787 20.4926 58.6324 20.4879H51.4889C51.763 19.6942 52.02 18.9518 52.2826 18.2038C52.3625 18.199 52.4426 18.199 52.5224 18.2038H59.4261C59.7093 18.2006 59.9922 18.2236 60.2712 18.2723C60.4042 18.2967 60.5243 18.3674 60.61 18.472C60.6958 18.5766 60.7416 18.7082 60.7394 18.8434C60.7459 19.2313 60.61 19.6082 60.3575 19.9027C60.105 20.1973 59.7533 20.3892 59.369 20.4422ZM60.7337 15.5828C60.4589 15.6351 60.1798 15.6619 59.9 15.6628H53.4075H53.162L53.9272 13.4529H54.1955H60.5339C60.8281 13.4538 61.1219 13.4747 61.4132 13.5157C61.5546 13.5299 61.6856 13.5963 61.7806 13.7019C61.8756 13.8075 61.9279 13.9447 61.9272 14.0868C61.9419 14.44 61.8297 14.7868 61.6108 15.0644C61.3918 15.342 61.0807 15.532 60.7337 15.6V15.5828Z" fill="#19250A"/>
<path d="M183.006 10.6213L178.615 23.3322H174.812C175.981 20.1117 177.154 16.8949 178.33 13.682L178.284 13.6534C178.216 13.722 178.141 13.7848 178.079 13.859C175.235 16.9349 172.393 20.0184 169.553 23.1096C169.485 23.194 169.398 23.2609 169.298 23.3046C169.199 23.3483 169.091 23.3676 168.982 23.3608C168.063 23.3608 167.138 23.3608 166.201 23.3608C165.482 20.106 164.762 16.8607 164.043 13.6249H163.986L160.725 23.3322H156.974C157.248 22.5499 157.516 21.7676 157.784 20.9911C158.957 17.6106 160.124 14.234 161.285 10.8612C161.342 10.6898 161.393 10.5985 161.593 10.6042H167.452H167.572C168.143 13.3908 168.714 16.1831 169.285 19.0382L169.587 18.7013C171.944 16.067 174.304 13.4346 176.668 10.804C176.773 10.6861 176.917 10.6108 177.074 10.5928C178.986 10.5928 180.894 10.5928 182.784 10.5928L183.006 10.6213Z" fill="#19250A"/>
<path d="M211.072 10.6209C209.605 14.8578 208.143 19.0891 206.67 23.3546H206.321C204.465 23.3546 202.61 23.3546 200.748 23.3546C200.651 23.3703 200.552 23.3507 200.468 23.2993C200.384 23.248 200.321 23.1684 200.291 23.0748C198.955 20.0865 197.623 17.1077 196.294 14.1384C196.243 14.0299 196.191 13.9271 196.111 13.7729L192.914 23.3318H189.162C189.676 21.8414 190.19 20.3682 190.698 18.8893C191.623 16.2169 192.554 13.5445 193.468 10.8664C193.542 10.6551 193.627 10.5923 193.833 10.598C195.736 10.598 197.627 10.598 199.503 10.598C199.588 10.5907 199.672 10.6129 199.742 10.6608C199.811 10.7087 199.862 10.7794 199.886 10.8607C201.245 13.8795 202.612 16.8983 203.986 19.9171C204.031 20.0199 204.083 20.1169 204.169 20.294L207.412 10.6209H211.072Z" fill="#19250A"/>
<path d="M133.79 14.732C133.973 13.9269 133.693 13.5443 132.871 13.5272C132.049 13.51 131.198 13.4929 130.358 13.4986C129.273 13.4986 128.194 13.4986 127.103 13.5386C125.767 13.6128 125.276 13.984 124.854 15.0575C124.352 16.3153 123.916 17.5979 123.546 18.9005C123.278 19.8541 123.706 20.4137 124.688 20.4365C126.578 20.4708 128.48 20.4879 130.398 20.4365C131.66 20.408 132.18 19.8655 132.505 18.5636H127.606L128.417 16.211H137.153C136.811 17.176 136.485 18.1353 136.131 19.0661C135.937 19.5914 135.714 20.111 135.48 20.6192C135.156 21.3598 134.641 22.0012 133.988 22.4777C133.335 22.9542 132.567 23.2489 131.763 23.3316C131.413 23.3817 131.06 23.4065 130.707 23.4058C128.223 23.4058 125.739 23.4058 123.255 23.4058C122.594 23.4065 121.935 23.3492 121.285 23.2345C119.572 22.909 118.909 21.9098 119.292 20.1453C119.777 17.9193 120.545 15.7644 121.576 13.7327C121.981 12.8814 122.606 12.1542 123.388 11.627C124.169 11.0997 125.078 10.7916 126.019 10.7349C129.187 10.4688 132.37 10.4306 135.543 10.6207C135.932 10.6415 136.316 10.7144 136.685 10.8377C136.93 10.8902 137.161 10.9921 137.365 11.137C137.57 11.2818 137.742 11.4668 137.872 11.6804C138.003 11.8941 138.088 12.1321 138.124 12.3799C138.159 12.6277 138.144 12.8801 138.078 13.1217C137.987 13.6928 137.787 14.3095 137.633 14.909H133.802C133.794 14.8504 133.79 14.7912 133.79 14.732Z" fill="#19250A"/>
<path d="M229.876 13.2591C229.773 13.8016 229.59 14.3441 229.448 14.898H225.616C225.616 14.8352 225.616 14.7838 225.616 14.7381C225.799 13.9044 225.525 13.5332 224.68 13.5218C223.332 13.5218 221.984 13.5218 220.637 13.5218C219.917 13.5218 219.192 13.5218 218.467 13.6017C218.092 13.6214 217.731 13.7487 217.428 13.9686C217.124 14.1884 216.89 14.4913 216.754 14.8409C216.149 16.1521 215.675 17.5196 215.338 18.9237C215.132 19.8658 215.515 20.4197 216.48 20.4369C218.433 20.4768 220.397 20.4711 222.361 20.4369C223.332 20.4369 223.806 19.9743 224.194 18.9294C224.234 18.8266 224.263 18.7238 224.308 18.5753H219.392C219.672 17.7588 219.934 16.9936 220.203 16.1999H228.939C228.745 16.7709 228.568 17.2905 228.368 17.8216C228.02 18.7524 227.689 19.6945 227.278 20.6082C226.959 21.3697 226.437 22.0293 225.77 22.5155C225.102 23.0017 224.315 23.2959 223.492 23.3662C223.153 23.4116 222.812 23.4344 222.47 23.4347C219.997 23.4347 217.519 23.4347 215.046 23.4347C214.386 23.4387 213.726 23.3814 213.076 23.2634C211.363 22.9379 210.69 21.9501 211.072 20.1856C211.554 17.9495 212.322 15.7847 213.356 13.7445C213.765 12.8948 214.393 12.1699 215.177 11.6448C215.96 11.1197 216.869 10.8135 217.81 10.7581C220.969 10.4977 224.142 10.4595 227.306 10.6439C227.68 10.6649 228.05 10.73 228.408 10.838C229.607 11.1464 230.116 12.0029 229.876 13.2591Z" fill="#19250A"/>
<path d="M155.095 23.0123C154.273 18.9695 153.452 14.9247 152.634 10.8781C152.588 10.6554 152.485 10.5983 152.263 10.5983C150.74 10.5983 149.217 10.5983 147.695 10.5983C147.576 10.5934 147.459 10.6167 147.352 10.6663C147.244 10.716 147.15 10.7906 147.078 10.8838C143.397 14.9381 139.708 18.9923 136.011 23.0466C135.931 23.1322 135.863 23.2236 135.772 23.3321H135.892C137.239 23.3321 138.587 23.3321 139.94 23.3321C140.085 23.3114 140.218 23.2407 140.317 23.1322C140.888 22.5155 141.425 21.8817 141.984 21.265C142.084 21.1557 142.22 21.0867 142.367 21.0708C144.971 21.0708 147.569 21.0708 150.173 21.0708C150.373 21.0708 150.43 21.1508 150.464 21.3164C150.59 21.9331 150.715 22.5384 150.858 23.1436C150.875 23.1934 150.904 23.238 150.943 23.273C150.982 23.308 151.029 23.3323 151.081 23.3435C152.417 23.3435 153.753 23.3435 155.135 23.3435C155.146 23.2121 155.146 23.1094 155.095 23.0123ZM144.503 18.4099L148.962 13.3449C149.311 15.058 149.647 16.7139 149.996 18.4099H144.503Z" fill="#19250A"/>
<path d="M87.0235 10.6209L86.4525 12.2769C85.6417 14.5876 84.827 16.8984 84.0085 19.2091C83.9629 19.3404 83.9 19.4718 83.8429 19.6031C82.8494 21.8872 81.1078 23.1948 78.7038 23.349C75.8516 23.532 72.9906 23.532 70.1384 23.349C69.4903 23.3194 68.8608 23.1227 68.3112 22.778C67.9576 22.5781 67.6779 22.2697 67.5133 21.8984C67.3488 21.5272 67.3082 21.1127 67.3975 20.7166C67.6235 19.5916 67.9191 18.4816 68.2826 17.3932C69.0021 15.1834 69.7901 12.9907 70.5667 10.7922C70.5667 10.7409 70.6124 10.6895 70.6467 10.6152H74.5239L73.8672 12.5339C73.2048 14.4829 72.5443 16.4263 71.8858 18.364C71.8833 18.3753 71.8833 18.387 71.8858 18.3982C71.4975 19.6545 71.8172 20.1855 73.0792 20.3112C74.8785 20.4898 76.6921 20.4688 78.4868 20.2484C78.8324 20.2182 79.1638 20.0965 79.4468 19.8958C79.7299 19.6951 79.9543 19.4226 80.097 19.1063C80.4911 18.2212 80.8394 17.319 81.1591 16.4168C81.8272 14.5439 82.4668 12.6595 83.1177 10.7808C83.1177 10.7408 83.152 10.7009 83.1748 10.6438L87.0235 10.6209Z" fill="#19250A"/>
<path d="M103.863 10.627C103.646 11.2551 103.435 11.8832 103.223 12.5056C103.126 12.738 103.044 12.9764 102.978 13.2194C102.915 13.4706 102.789 13.5163 102.561 13.5163C99.5574 13.5163 96.5539 13.5163 93.5503 13.5163C93.2534 13.5163 93.122 13.5791 93.0307 13.8875C92.8422 14.527 92.5967 15.1494 92.3797 15.7833C92.3797 15.8518 92.3511 15.9203 92.3283 16.0288H101.505C101.236 16.8111 100.985 17.5534 100.728 18.3129C100.505 18.9467 100.505 18.9467 99.8544 18.9467H91.289C90.7808 20.4257 90.2726 21.8875 89.7587 23.3664H85.8815C86.2583 22.2701 86.6295 21.1908 87.0235 20.1059C88.0856 17.0376 89.1458 13.9712 90.2041 10.9067C90.2669 10.7297 90.3183 10.627 90.5353 10.627C94.9379 10.627 99.3461 10.627 103.749 10.627H103.863Z" fill="#19250A"/>
<path d="M120.108 10.6152C119.892 11.2548 119.68 11.8772 119.463 12.4996C119.383 12.7394 119.275 12.9735 119.218 13.2134C119.161 13.4532 119.046 13.516 118.807 13.516C117.048 13.516 115.283 13.516 113.525 13.516C112.291 13.516 111.058 13.516 109.83 13.516C109.51 13.516 109.356 13.5788 109.259 13.9214C109.082 14.5438 108.842 15.1606 108.625 15.783C108.602 15.8657 108.583 15.9495 108.568 16.0342H117.75C117.482 16.8165 117.231 17.5531 116.974 18.3183C116.751 18.9578 116.745 18.9578 116.1 18.9578H107.535C107.021 20.4311 106.512 21.8986 106.004 23.3776H102.121C103.035 20.7337 103.937 18.1184 104.845 15.5032C105.37 13.9785 105.907 12.4482 106.427 10.935C106.495 10.7351 106.57 10.6552 106.787 10.6552C111.161 10.6552 115.535 10.6552 119.92 10.6552L120.108 10.6152Z" fill="#19250A"/>
<path d="M190.253 10.6034L185.839 23.3429H181.944C182.355 22.1381 182.767 20.9504 183.178 19.7683C184.202 16.8028 185.23 13.8392 186.261 10.8775C186.296 10.7748 186.438 10.6206 186.513 10.6149C187.746 10.5977 188.974 10.6034 190.253 10.6034Z" fill="#19250A"/>
</g>
<defs>
<clipPath id="clip0_225_665">
<rect width="229.933" height="32" fill="white"/>
</clipPath>
</defs>
</svg>
