<svg width="21" height="21" viewBox="0 0 21 21" fill="none" xmlns="http://www.w3.org/2000/svg">
<path fill-rule="evenodd" clip-rule="evenodd" d="M1.6355 10.0209C1.6355 14.652 5.38978 18.4063 10.0209 18.4063C14.6521 18.4063 18.4063 14.652 18.4063 10.0209C18.4063 5.38972 14.6521 1.63544 10.0209 1.63544C5.38978 1.63544 1.6355 5.38972 1.6355 10.0209ZM10.0209 19.8438C4.59587 19.8438 0.197998 15.4459 0.197998 10.0209C0.197998 4.59581 4.59587 0.197937 10.0209 0.197937C15.446 0.197937 19.8438 4.59581 19.8438 10.0209C19.8438 12.4747 18.9441 14.7184 17.4565 16.44L20.5916 19.5751C20.8723 19.8558 20.8723 20.3109 20.5916 20.5916C20.311 20.8723 19.8559 20.8723 19.5752 20.5916L16.44 17.4564C14.7184 18.944 12.4747 19.8438 10.0209 19.8438Z" fill="#19250A"/>
</svg>
