<svg width="22" height="18" viewBox="0 0 22 18" fill="none" xmlns="http://www.w3.org/2000/svg">
<path d="M18.6239 1.80899C17.2217 1.1656 15.7181 0.691577 14.1459 0.420084C14.1173 0.414844 14.0887 0.427939 14.0739 0.454128C13.8805 0.798075 13.6663 1.24678 13.5163 1.59946C11.8254 1.34631 10.1431 1.34631 8.48679 1.59946C8.33676 1.23894 8.11478 0.798075 7.92053 0.454128C7.90578 0.428813 7.87718 0.415718 7.84855 0.420084C6.27725 0.690709 4.7736 1.16473 3.37052 1.80899C3.35838 1.81423 3.34797 1.82297 3.34106 1.83431C0.488942 6.0953 -0.292371 10.2516 0.0909151 14.3563C0.0926494 14.3764 0.103922 14.3956 0.119532 14.4078C2.00127 15.7897 3.82407 16.6287 5.61301 17.1847C5.64164 17.1935 5.67197 17.183 5.69019 17.1594C6.11337 16.5815 6.49059 15.9722 6.81402 15.3314C6.83311 15.2939 6.81489 15.2494 6.77588 15.2345C6.17754 15.0075 5.6078 14.7308 5.05975 14.4165C5.0164 14.3912 5.01293 14.3292 5.05281 14.2995C5.16814 14.2131 5.2835 14.1232 5.39363 14.0324C5.41355 14.0158 5.44131 14.0123 5.46474 14.0228C9.06518 15.6666 12.9631 15.6666 16.521 14.0228C16.5445 14.0115 16.5722 14.015 16.593 14.0315C16.7032 14.1223 16.8185 14.2131 16.9347 14.2995C16.9746 14.3292 16.972 14.3912 16.9286 14.4165C16.3806 14.7369 15.8108 15.0075 15.2116 15.2336C15.1726 15.2485 15.1553 15.2939 15.1744 15.3314C15.5047 15.9713 15.882 16.5806 16.2973 17.1585C16.3147 17.183 16.3459 17.1935 16.3745 17.1847C18.1721 16.6287 19.9949 15.7897 21.8766 14.4078C21.8931 14.3956 21.9035 14.3773 21.9053 14.3572C22.364 9.61165 21.1369 5.48947 18.6525 1.83517C18.6465 1.82297 18.6361 1.81423 18.6239 1.80899ZM7.35169 11.857C6.26771 11.857 5.37454 10.8618 5.37454 9.6396C5.37454 8.41742 6.25039 7.42225 7.35169 7.42225C8.46163 7.42225 9.34616 8.42616 9.32881 9.6396C9.32881 10.8618 8.45296 11.857 7.35169 11.857ZM14.6619 11.857C13.5779 11.857 12.6847 10.8618 12.6847 9.6396C12.6847 8.41742 13.5606 7.42225 14.6619 7.42225C15.7718 7.42225 16.6563 8.42616 16.639 9.6396C16.639 10.8618 15.7718 11.857 14.6619 11.857Z" fill="#19250A"/>
</svg>
